<svg width="36" height="35" viewBox="0 0 36 35" fill="none" xmlns="http://www.w3.org/2000/svg">
<path d="M18.0001 0.894379C8.06019 0.894379 0 8.5649 0 18.0272C0 25.5971 5.15756 32.0192 12.3096 34.2847C13.2091 34.4432 13.5395 33.913 13.5395 33.4605C13.5395 33.052 13.5227 31.7022 13.5151 30.2706C8.50728 31.307 7.45061 28.2492 7.45061 28.2492C6.63181 26.2688 5.45204 25.7424 5.45204 25.7424C3.81897 24.679 5.57514 24.7007 5.57514 24.7007C7.3827 24.8217 8.33448 26.4664 8.33448 26.4664C9.93988 29.0856 12.5453 28.3283 13.5725 27.8907C13.734 26.7832 14.2006 26.0275 14.7153 25.5997C10.7173 25.1663 6.51436 23.6973 6.51436 17.1325C6.51436 15.262 7.21753 13.7336 8.36907 12.5338C8.18216 12.1022 7.56609 10.3597 8.54342 7.99974C8.54342 7.99974 10.0549 7.53925 13.4947 9.75596C14.9304 9.37623 16.4703 9.18596 18.0001 9.17951C19.5298 9.18596 21.0708 9.37623 22.5094 9.75596C25.9451 7.53925 27.4545 7.99974 27.4545 7.99974C28.4342 10.3597 27.8178 12.1022 27.6309 12.5338C28.785 13.7336 29.4834 15.2619 29.4834 17.1325C29.4834 23.7128 25.2725 25.1619 21.2644 25.586C21.91 26.1177 22.4852 27.1604 22.4852 28.7587C22.4852 31.0511 22.4643 32.8961 22.4643 33.4605C22.4643 33.9164 22.7883 34.4506 23.7009 34.2824C30.8489 32.0144 36 25.5946 36 18.0272C36 8.5649 27.9409 0.894379 18.0001 0.894379Z" fill="black"/>
</svg>
