<svg width="410" height="96" viewBox="0 0 410 96" fill="none" xmlns="http://www.w3.org/2000/svg">
<rect y="5" width="410" height="89" fill="#FAFAF7"/>
<rect x="1" y="6" width="48" height="87" fill="black" stroke="white" stroke-width="2"/>
<line x1="12.4568" y1="6.11043" x2="49.4568" y2="25.1104" stroke="white" stroke-width="2"/>
<line x1="0.439867" y1="13.1019" x2="49.4399" y2="37.1019" stroke="white" stroke-width="2"/>
<line x1="1.43987" y1="25.1019" x2="50.4399" y2="49.1019" stroke="white" stroke-width="2"/>
<line x1="1.43987" y1="37.1019" x2="50.4399" y2="61.1019" stroke="white" stroke-width="2"/>
<line x1="0.439867" y1="49.1019" x2="49.4399" y2="73.1019" stroke="white" stroke-width="2"/>
<line x1="1.41665" y1="64.0909" x2="49.4167" y2="86.0909" stroke="white" stroke-width="2"/>
<line x1="1.37139" y1="77.0715" x2="41.3714" y2="93.0715" stroke="white" stroke-width="2"/>
<path d="M114.88 14V62H105.28V42.8H76.48V62H66.88V14H76.48V33.2H105.28V14H114.88ZM168.599 14V46.256H160.823C160.439 46.256 160.151 46.832 160.535 47.12L168.599 55.184V62H161.783L144.599 44.816L127.415 62H120.599V55.184L161.783 14H168.599ZM151.415 38L158.135 44.816C158.519 45.104 158.999 44.912 158.999 44.432V30.416L151.415 38ZM183.918 49.616V52.4H222.318V62H174.318V45.584L205.902 14H222.318V23.6H209.934L183.918 49.616ZM276.036 20.816L263.652 33.2H276.036V62H266.436V42.8H254.052L234.852 62H228.036V55.184L236.1 47.12C236.484 46.832 236.196 46.256 235.812 46.256H228.036V14H237.636V44.432C237.636 44.912 238.116 45.104 238.5 44.816L269.22 14H276.036V20.816ZM329.755 14V23.6H298.171L307.771 33.2H320.155V42.8H303.739L292.219 31.184C291.835 30.896 291.355 31.088 291.355 31.568V52.4H329.755V62H281.755V29.744H289.531C289.915 29.744 290.203 29.168 289.819 28.88L281.755 20.816V14H329.755ZM383.474 45.584V62H335.474V33.2H345.074V52.4H373.874V49.616L347.858 23.6H335.474V14H351.89L383.474 45.584Z" fill="black"/>
<path d="M75.42 79.794L73.726 81.474C73.684 81.53 73.712 81.6 73.782 81.6H75.42V83H73.516V81.866C73.516 81.81 73.432 81.768 73.39 81.824L72.214 83H68.42V76H69.82V81.6H71.626L74.02 79.206V76H75.42V79.794ZM78.648 76L81.728 79.094C81.784 79.136 81.854 79.108 81.854 79.038V76H83.254V79.304H82.12C82.064 79.304 82.022 79.388 82.078 79.43L83.254 80.606V83H81.854V81.194L78.06 77.4H77.654V83H76.254V76H78.648ZM91.088 81.6V83H85.894L84.088 81.194V76H85.488V80.606L86.482 81.6H91.088ZM93.728 76H98.922V81.194L97.116 83H91.922V77.806L93.728 76ZM97.522 80.606V77.4H94.316L93.322 78.394V81.6H96.528L97.522 80.606ZM101.156 81.194V81.6H106.756V83H99.7559V80.606L104.362 76H106.756V77.4H104.95L101.156 81.194ZM114.59 76.994L112.784 78.8H114.59V83H113.19V80.2H111.384L108.584 83H107.59V82.006L108.766 80.83C108.822 80.788 108.78 80.704 108.724 80.704H107.59V76H108.99V80.438C108.99 80.508 109.06 80.536 109.116 80.494L113.596 76H114.59V76.994ZM126.621 76V80.704H125.487C125.431 80.704 125.389 80.788 125.445 80.83L126.621 82.006V83H125.627L123.121 80.494L120.615 83H119.621V82.006L125.627 76H126.621ZM124.115 79.5L125.095 80.494C125.151 80.536 125.221 80.508 125.221 80.438V78.394L124.115 79.5ZM134.455 81.6V83H129.261L127.455 81.194V76H128.855V80.606L129.849 81.6H134.455ZM142.289 81.6V83H137.095L135.289 81.194V76H136.689V80.606L137.683 81.6H142.289ZM154.32 76V78.394L152.514 80.2H148.72V83H147.32V78.8H151.926L152.92 77.806V77.4H147.32V76H154.32ZM156.96 76H162.154V81.194L160.348 83H155.154V77.806L156.96 76ZM160.754 80.606V77.4H157.548L156.554 78.394V81.6H159.76L160.754 80.606ZM169.988 77.4H165.55C165.48 77.4 165.452 77.47 165.494 77.526L169.988 82.006V83H168.994L167.818 81.824C167.776 81.768 167.692 81.81 167.692 81.866V83H162.988V81.6H167.426C167.496 81.6 167.524 81.53 167.482 81.474L162.988 76.994V76H163.982L165.158 77.176C165.2 77.232 165.284 77.19 165.284 77.134V76H169.988V77.4ZM177.822 77.4H173.384C173.314 77.4 173.286 77.47 173.328 77.526L177.822 82.006V83H176.828L175.652 81.824C175.61 81.768 175.526 81.81 175.526 81.866V83H170.822V81.6H175.26C175.33 81.6 175.358 81.53 175.316 81.474L170.822 76.994V76H171.816L172.992 77.176C173.034 77.232 173.118 77.19 173.118 77.134V76H177.822V77.4ZM181.456 81.6H182.856V83H178.656V81.6H180.056V77.4H178.656V76H182.856V77.4H181.456V81.6ZM190.701 76V76.994L189.595 78.1H190.701V83H183.701V82.006L184.877 80.83C184.933 80.788 184.891 80.704 184.835 80.704H183.701V76H190.701ZM185.227 80.494L188.307 77.4H185.101V80.438C185.101 80.508 185.171 80.536 185.227 80.494ZM189.301 81.6V79.5H188.195L186.095 81.6H189.301ZM194.335 81.6H195.735V83H191.535V81.6H192.935V77.4H191.535V76H195.735V77.4H194.335V81.6ZM203.58 81.6V83H198.386L196.58 81.194V76H197.98V80.606L198.974 81.6H203.58ZM207.214 81.6H208.614V83H204.414V81.6H205.814V77.4H204.414V76H208.614V77.4H207.214V81.6ZM214.065 76H216.459V77.4H214.653L213.659 78.394V83H212.259V77.806L212.553 77.526C212.595 77.47 212.567 77.4 212.497 77.4H209.459V76H212.763V77.134C212.763 77.19 212.847 77.232 212.889 77.176L214.065 76ZM220.093 81.6H221.493V83H217.293V81.6H218.693V77.4H217.293V76H221.493V77.4H220.093V81.6ZM229.338 76V77.4H224.732L226.132 78.8H227.938V80.2H225.544L223.864 78.506C223.808 78.464 223.738 78.492 223.738 78.562V81.6H229.338V83H222.338V78.296H223.472C223.528 78.296 223.57 78.212 223.514 78.17L222.338 76.994V76H229.338ZM237.172 77.4H232.734C232.664 77.4 232.636 77.47 232.678 77.526L237.172 82.006V83H236.178L235.002 81.824C234.96 81.768 234.876 81.81 234.876 81.866V83H230.172V81.6H234.61C234.68 81.6 234.708 81.53 234.666 81.474L230.172 76.994V76H231.166L232.342 77.176C232.384 77.232 232.468 77.19 232.468 77.134V76H237.172V77.4Z" fill="black"/>
<path d="M409.5 67L377.5 95H409.5V67Z" fill="black" stroke="black"/>
</svg>
