<svg width="36" height="36" viewBox="0 0 36 36" fill="none" xmlns="http://www.w3.org/2000/svg">
<path d="M33.1875 0.894379H2.8125C1.25859 0.894379 0 2.09234 0 3.57138V32.483C0 33.962 1.25859 35.16 2.8125 35.16H33.1875C34.7414 35.16 36 33.962 36 32.483V3.57138C36 2.09234 34.7414 0.894379 33.1875 0.894379ZM33.8906 32.483C33.8906 32.8511 33.5742 33.1522 33.1875 33.1522H2.8125C2.42578 33.1522 2.10938 32.8511 2.10938 32.483V3.57138C2.10938 3.20329 2.42578 2.90213 2.8125 2.90213H33.1875C33.5742 2.90213 33.8906 3.20329 33.8906 3.57138V32.483Z" fill="black"/>
<path d="M12.9656 14.507H9.45703V25.1949H12.9656V14.507Z" fill="black"/>
<path d="M22.5491 14.4066C20.5382 14.4066 19.2796 15.4506 19.0476 16.1868V14.5069H15.103C15.1522 15.397 15.103 25.1949 15.103 25.1949H19.0476V19.4192C19.0476 19.0913 19.0335 18.7701 19.1319 18.5425C19.3991 17.9 19.9827 17.2308 21.0304 17.2308C22.4015 17.2308 23.0202 18.2213 23.0202 19.6669V25.1949H26.9999V19.2519C26.9999 15.9458 25.0452 14.4066 22.5491 14.4066Z" fill="black"/>
<path d="M11.1375 9.46078C9.8437 9.46078 8.99292 10.2572 8.99292 11.3146C8.99292 12.3519 9.81558 13.1684 11.0882 13.1684H11.1164C12.4382 13.1684 13.2609 12.3453 13.2539 11.3146C13.2257 10.2572 12.4312 9.46078 11.1375 9.46078Z" fill="black"/>
</svg>
