<svg width="924" height="602" viewBox="0 0 924 602" fill="none" xmlns="http://www.w3.org/2000/svg">
<path d="M905.895 275.39V268.596H915.275V186.54L923 181.314V25.5645L895.963 1H592.492L580.354 11.9756H340.336L330.404 1H26.933L1 25.0418V181.314L8.17295 186.54L7.06942 270.686H8.17295H18.1047V274.868M905.895 275.39H915.827M905.895 275.39V280.617M905.895 280.617H915.275M905.895 280.617V286.366M905.895 286.366H915.827M905.895 286.366V291.592M905.895 291.592H915.827M905.895 291.592V297.341M905.895 297.341H915.275M905.895 297.341V303.613M905.895 303.613H915.827M905.895 303.613V308.84M905.895 308.84H915.275M905.895 308.84V314.589M905.895 314.589H915.275M905.895 314.589V319.815M905.895 319.815H915.275M905.895 319.815V325.042M905.895 325.042H915.275M905.895 325.042V329.746H915.827V414.415L923 423.3V579.049L898.171 601H593.044L579.802 586.888H343.646L330.404 601H26.933L1.55177 579.049V422.254L8.17295 415.46V331.836H18.1047V325.042M18.1047 325.042H7.06942M18.1047 325.042V319.815M18.1047 319.815H7.06942M18.1047 319.815V313.543M18.1047 313.543H6.51765M18.1047 313.543V308.84M18.1047 308.84H7.06942M18.1047 308.84V303.091M18.1047 303.091H7.06942M18.1047 303.091V297.341M18.1047 297.341H7.06942M18.1047 297.341V292.115M18.1047 292.115H7.06942M18.1047 292.115V286.366M18.1047 286.366H7.62118M18.1047 286.366V280.617M18.1047 280.617H7.62118M18.1047 280.617V274.868M18.1047 274.868H7.62118" stroke="#D7AE45" stroke-width="2"/>
<path d="M21.4152 16.1568L8.72461 28.1777V106.052H13.6905L18.1046 101.871V53.2648L30.7952 41.7666V16.1568H21.4152Z" stroke="#D7AE45" stroke-width="2"/>
<path d="M24.7775 32.8815C24.7775 35.4667 22.5569 37.608 19.7598 37.608C16.9628 37.608 14.7422 35.4667 14.7422 32.8815C14.7422 30.2964 16.9628 28.1551 19.7598 28.1551C22.5569 28.1551 24.7775 30.2964 24.7775 32.8815Z" stroke="#D7AE45"/>
<path d="M20.3633 32.8816C20.3633 33.1575 20.119 33.4269 19.7598 33.4269C19.4006 33.4269 19.1562 33.1575 19.1562 32.8816C19.1562 32.6056 19.4006 32.3363 19.7598 32.3363C20.119 32.3363 20.3633 32.6056 20.3633 32.8816Z" stroke="#D7AE45"/>
<path d="M902.033 15.1115L914.724 27.1324V105.007H909.758L905.344 100.826V52.2195L892.653 40.7212V15.1115L902.033 15.1115Z" stroke="#D7AE45" stroke-width="2"/>
<path d="M898.671 31.8362C898.671 34.4214 900.891 36.5627 903.688 36.5627C906.485 36.5627 908.706 34.4214 908.706 31.8362C908.706 29.251 906.485 27.1097 903.688 27.1097C900.891 27.1097 898.671 29.251 898.671 31.8362Z" stroke="#D7AE45"/>
<path d="M903.085 31.8362C903.085 32.1122 903.329 32.3815 903.688 32.3815C904.048 32.3815 904.292 32.1122 904.292 31.8362C904.292 31.5602 904.048 31.2909 903.688 31.2909C903.329 31.2909 903.085 31.5602 903.085 31.8362Z" stroke="#D7AE45"/>
<path d="M902.033 586.888L914.724 574.867L914.724 496.993L909.758 496.993L905.344 501.174L905.344 549.78L892.653 561.279L892.653 586.888L902.033 586.888Z" stroke="#D7AE45" stroke-width="2"/>
<path d="M898.671 570.164C898.671 567.578 900.891 565.437 903.688 565.437C906.485 565.437 908.706 567.578 908.706 570.164C908.706 572.749 906.485 574.89 903.688 574.89C900.891 574.89 898.671 572.749 898.671 570.164Z" stroke="#D7AE45"/>
<path d="M903.085 570.164C903.085 569.888 903.329 569.618 903.688 569.618C904.048 569.618 904.292 569.888 904.292 570.164C904.292 570.44 904.048 570.709 903.688 570.709C903.329 570.709 903.085 570.44 903.085 570.164Z" stroke="#D7AE45"/>
<path d="M23.6222 586.888L10.9316 574.867L10.9317 496.993L15.8975 496.993L20.3117 501.174L20.3117 549.78L33.0023 561.279L33.0023 586.888L23.6222 586.888Z" stroke="#D7AE45" stroke-width="2"/>
<path d="M26.9845 570.164C26.9845 567.578 24.7639 565.437 21.9669 565.437C19.1698 565.437 16.9492 567.578 16.9492 570.164C16.9492 572.749 19.1698 574.89 21.9669 574.89C24.7639 574.89 26.9845 572.749 26.9845 570.164Z" stroke="#D7AE45"/>
<path d="M22.5703 570.164C22.5703 569.888 22.326 569.618 21.9668 569.618C21.6076 569.618 21.3633 569.888 21.3633 570.164C21.3633 570.44 21.6076 570.709 21.9668 570.709C22.326 570.709 22.5703 570.44 22.5703 570.164Z" stroke="#D7AE45"/>
<path d="M413.169 38.6306H171.496L151.08 56.4007H90.9378L60.0389 85.669V145.773L33.0024 166.679V247.69L47.3483 263.369V341.244L33.0024 354.833V433.753L60.0389 461.453V516.854L90.9378 545.599H151.08L170.944 563.369H414.272V555.53L437.447 535.146H487.657L510.28 555.53V563.369L751.953 564.937L772.368 545.599H833.614L863.409 516.854V458.317L890.998 435.32V351.697L874.997 338.108V263.369L888.239 247.69V166.679L863.961 145.773V85.669L834.166 56.4007H770.713L753.056 38.6306H510.28V46.4704L485.45 69.4669L436.895 67.3763L413.169 46.4704V38.6306Z" stroke="#D7AE45" stroke-width="2"/>
<path d="M489.312 23.4739H433.584C433.584 23.4739 426.963 27.6551 428.618 30.2683C430.274 32.8815 442.412 43.3345 442.412 43.3345C442.412 43.3345 449.034 43.8571 450.137 43.3345C451.241 42.8119 450.689 40.1986 451.792 40.1986H470.552C472.208 40.1986 471.104 43.3345 472.208 43.3345H481.588C481.588 43.3345 493.727 31.3136 494.278 28.7004C494.83 26.0871 489.312 23.4739 489.312 23.4739Z" stroke="#D7AE45" stroke-width="2"/>
<path d="M434.174 579.804L489.903 579.804C489.903 579.804 496.524 575.622 494.869 573.009C493.213 570.396 481.074 559.943 481.074 559.943C481.074 559.943 474.453 559.42 473.35 559.943C472.246 560.466 472.798 563.079 471.694 563.079L452.934 563.079C451.279 563.079 452.383 559.943 451.279 559.943L441.899 559.943C441.899 559.943 429.76 571.964 429.209 574.577C428.657 577.19 434.174 579.804 434.174 579.804Z" stroke="#D7AE45" stroke-width="2"/>
</svg>
