<svg width="1666" height="349" viewBox="0 0 1666 349" fill="none" xmlns="http://www.w3.org/2000/svg">
<path d="M1476.5 103.5L1431.5 179L1448.5 196.5H1528.5L1543 179L1498.5 103.5H1476.5Z" stroke="black"/>
<path d="M1442 173.4L1478 113H1495.6L1531.2 173.4L1519.6 187.4H1455.6L1442.48 172.595" stroke="black" stroke-width="3"/>
<path d="M1063.5 2H38C12.8744 6.76081 7.78766 15.7217 2 34V283L70 347H429L443.5 329.5H775.5L793.5 347H1534.5L1664 209.5V2H1398L1385 17.5H1080.5L1063.5 2Z" stroke="#D7AE45" stroke-width="3"/>
<path d="M98.4999 24.5L25.9999 101.5V131H49.4999C51.8981 132.946 51.7467 134.163 49.4999 136.5H24.9999C22.0268 139.617 21.8357 141.273 24.9999 144H49.4999C51.007 146.735 51.0703 148.266 49.4999 151H24.9999C21.8748 153.539 21.5845 154.961 24.9999 157.5H49.4999C51.3473 159.999 50.8654 161.593 49.4999 164.5H24.9999C21.6513 167.436 21.8237 168.954 24.9999 171.5H49.4999C50.8508 173.84 50.8345 175.272 49.4999 178H24.9999C21.9046 180.73 21.9675 182.267 24.9999 185H49.4999C51.1743 187.343 50.9356 188.657 49.4999 191H24.9999C21.9432 194.208 22.5719 195.494 24.9999 197.5H49.4999C51.3536 200.025 51.1369 201.581 49.4999 204.5H24.9999C22.5636 207.234 23.1222 208.766 24.9999 211.5H49.4999C51.0815 214.416 50.9974 216.302 49.4999 220H25.9999V266.5L60.4999 303H1085L1122 266.5H1553.5L1585.5 231V37.5H1027L1012.5 24.5H98.4999Z" stroke="#D7AE45"/>
<path d="M31 34H50" stroke="black" stroke-width="3" stroke-linecap="round"/>
<path d="M31 42H50" stroke="black" stroke-width="3" stroke-linecap="round"/>
<path d="M31 51H50" stroke="black" stroke-width="3" stroke-linecap="round"/>
<rect x="1613" y="35" width="4" height="4" fill="black"/>
<rect x="1632" y="63" width="4" height="4" fill="black"/>
<rect x="1624.42" y="83.4143" width="4" height="4" transform="rotate(89.1773 1624.42 83.4143)" fill="black"/>
<rect x="1625" y="105" width="4" height="4" transform="rotate(89.1773 1625 105)" fill="black"/>
<rect x="1644" y="172" width="4" height="4" transform="rotate(89.1773 1644 172)" fill="black"/>
<rect x="1645" y="105" width="4" height="4" transform="rotate(89.1773 1645 105)" fill="black"/>
<rect x="1624" y="119" width="4" height="4" transform="rotate(89.1773 1624 119)" fill="black"/>
<rect x="1643" y="186" width="4" height="4" transform="rotate(89.1773 1643 186)" fill="black"/>
<rect x="1643.54" y="163.987" width="4" height="4" transform="rotate(177.37 1643.54 163.987)" fill="black"/>
<rect x="1613.31" y="178.902" width="4" height="4" transform="rotate(0.242277 1613.31 178.902)" fill="black"/>
<rect x="1643" y="36" width="4" height="4" transform="rotate(89.1773 1643 36)" fill="black"/>
<rect x="1644" y="84" width="4" height="4" transform="rotate(89.1773 1644 84)" fill="black"/>
<rect x="1625" y="152" width="4" height="4" transform="rotate(89.1773 1625 152)" fill="black"/>
<rect x="1643" y="59" width="4" height="4" transform="rotate(89.1773 1643 59)" fill="black"/>
<rect x="1613" y="57" width="4" height="4" fill="black"/>
<rect x="1639" y="43" width="4" height="4" fill="black"/>
<rect x="1640" y="91" width="4" height="4" fill="black"/>
<rect x="1621" y="159" width="4" height="4" fill="black"/>
<rect x="1613" y="43" width="4" height="4" fill="black"/>
<rect x="1632" y="71" width="4" height="4" fill="black"/>
<rect x="1616.42" y="83.5293" width="4" height="4" transform="rotate(89.1773 1616.42 83.5293)" fill="black"/>
<rect x="1617" y="105.115" width="4" height="4" transform="rotate(89.1773 1617 105.115)" fill="black"/>
<rect x="1636" y="172.115" width="4" height="4" transform="rotate(89.1773 1636 172.115)" fill="black"/>
<rect x="1637" y="105.115" width="4" height="4" transform="rotate(89.1773 1637 105.115)" fill="black"/>
<rect x="1616" y="119.115" width="4" height="4" transform="rotate(89.1773 1616 119.115)" fill="black"/>
<rect x="1635" y="186.115" width="4" height="4" transform="rotate(89.1773 1635 186.115)" fill="black"/>
<rect x="1643.17" y="155.996" width="4" height="4" transform="rotate(177.37 1643.17 155.996)" fill="black"/>
<rect x="1613.27" y="186.902" width="4" height="4" transform="rotate(0.242277 1613.27 186.902)" fill="black"/>
<rect x="1635" y="36.115" width="4" height="4" transform="rotate(89.1773 1635 36.115)" fill="black"/>
<rect x="1636" y="84.115" width="4" height="4" transform="rotate(89.1773 1636 84.115)" fill="black"/>
<rect x="1617" y="152.115" width="4" height="4" transform="rotate(89.1773 1617 152.115)" fill="black"/>
<rect x="1613" y="71" width="4" height="4" fill="black"/>
<rect x="1620" y="43" width="4" height="4" fill="black"/>
<rect x="1639" y="71" width="4" height="4" fill="black"/>
<rect x="1616.52" y="90.5286" width="4" height="4" transform="rotate(89.1773 1616.52 90.5286)" fill="black"/>
<rect x="1643" y="117" width="4" height="4" transform="rotate(89.1773 1643 117)" fill="black"/>
<rect x="1617.1" y="112.114" width="4" height="4" transform="rotate(89.1773 1617.1 112.114)" fill="black"/>
<rect x="1636.1" y="179.114" width="4" height="4" transform="rotate(89.1773 1636.1 179.114)" fill="black"/>
<rect x="1636.18" y="156.317" width="4" height="4" transform="rotate(177.37 1636.18 156.317)" fill="black"/>
<rect x="1620.27" y="186.932" width="4" height="4" transform="rotate(0.242277 1620.27 186.932)" fill="black"/>
<rect x="1635.1" y="43.1143" width="4" height="4" transform="rotate(89.1773 1635.1 43.1143)" fill="black"/>
<rect x="1636.1" y="91.1143" width="4" height="4" transform="rotate(89.1773 1636.1 91.1143)" fill="black"/>
<rect x="1617.1" y="159.114" width="4" height="4" transform="rotate(89.1773 1617.1 159.114)" fill="black"/>
<rect x="1620" y="71" width="4" height="4" fill="black"/>
<path d="M1484.01 163.304V138.44H1490.3V163.304H1484.01ZM1484.01 173V166.712H1490.3V173H1484.01Z" fill="black"/>
<path d="M137.287 337C136.476 337 135.74 336.787 135.079 336.36C134.418 335.912 133.884 335.336 133.479 334.632C133.074 333.928 132.871 333.181 132.871 332.392V318.472C132.871 317.64 133.074 316.893 133.479 316.232C133.884 315.549 134.418 315.005 135.079 314.6C135.74 314.173 136.476 313.96 137.287 313.96H151.271C152.082 313.96 152.818 314.173 153.479 314.6C154.14 315.005 154.674 315.549 155.079 316.232C155.484 316.893 155.687 317.64 155.687 318.472V332.392C155.687 333.181 155.484 333.928 155.079 334.632C154.674 335.336 154.14 335.912 153.479 336.36C152.818 336.787 152.082 337 151.271 337H137.287ZM138.983 332.584H151.111C151.218 332.584 151.303 332.552 151.367 332.488C151.452 332.403 151.495 332.307 151.495 332.2V322.152L138.983 332.584ZM137.063 328.68L149.575 318.248H137.447C137.34 318.248 137.244 318.291 137.159 318.376C137.095 318.44 137.063 318.525 137.063 318.632V328.68ZM163.974 337C163.164 337 162.428 336.787 161.766 336.36C161.105 335.912 160.572 335.336 160.166 334.632C159.761 333.928 159.558 333.181 159.558 332.392V318.472C159.558 317.64 159.761 316.893 160.166 316.232C160.572 315.549 161.105 315.005 161.766 314.6C162.428 314.173 163.164 313.96 163.974 313.96H177.958C178.769 313.96 179.505 314.173 180.166 314.6C180.828 315.005 181.361 315.549 181.766 316.232C182.172 316.893 182.374 317.64 182.374 318.472V332.392C182.374 333.181 182.172 333.928 181.766 334.632C181.361 335.336 180.828 335.912 180.166 336.36C179.505 336.787 178.769 337 177.958 337H163.974ZM165.67 332.584H177.798C177.905 332.584 177.99 332.552 178.054 332.488C178.14 332.403 178.182 332.307 178.182 332.2V322.152L165.67 332.584ZM163.75 328.68L176.262 318.248H164.134C164.028 318.248 163.932 318.291 163.846 318.376C163.782 318.44 163.75 318.525 163.75 318.632V328.68ZM190.662 337C189.851 337 189.115 336.787 188.454 336.36C187.793 335.912 187.259 335.336 186.854 334.632C186.449 333.928 186.246 333.181 186.246 332.392V318.472C186.246 317.64 186.449 316.893 186.854 316.232C187.259 315.549 187.793 315.005 188.454 314.6C189.115 314.173 189.851 313.96 190.662 313.96H204.646C205.457 313.96 206.193 314.173 206.854 314.6C207.515 315.005 208.049 315.549 208.454 316.232C208.859 316.893 209.062 317.64 209.062 318.472V332.392C209.062 333.181 208.859 333.928 208.454 334.632C208.049 335.336 207.515 335.912 206.854 336.36C206.193 336.787 205.457 337 204.646 337H190.662ZM192.358 332.584H204.486C204.593 332.584 204.678 332.552 204.742 332.488C204.827 332.403 204.87 332.307 204.87 332.2V322.152L192.358 332.584ZM190.438 328.68L202.95 318.248H190.822C190.715 318.248 190.619 318.291 190.534 318.376C190.47 318.44 190.438 318.525 190.438 318.632V328.68ZM226.181 337V318.504C226.181 318.397 226.139 318.312 226.053 318.248C225.989 318.163 225.904 318.12 225.797 318.12H211.205V313.928H225.957C226.768 313.928 227.504 314.131 228.165 314.536C228.848 314.92 229.381 315.443 229.765 316.104C230.171 316.765 230.373 317.512 230.373 318.344V337H226.181ZM234.122 329.64V325.448H247.21V329.64H234.122ZM250.59 337V328.168C250.59 327.336 250.792 326.589 251.198 325.928C251.603 325.267 252.136 324.744 252.798 324.36C253.459 323.955 254.195 323.752 255.006 323.752H268.83C268.936 323.752 269.022 323.72 269.086 323.656C269.171 323.571 269.214 323.475 269.214 323.368V318.536C269.214 318.429 269.171 318.344 269.086 318.28C269.022 318.195 268.936 318.152 268.83 318.152H255.166C255.059 318.152 254.963 318.195 254.878 318.28C254.814 318.344 254.782 318.429 254.782 318.536V320.104H250.59V318.376C250.59 317.544 250.792 316.797 251.198 316.136C251.603 315.475 252.136 314.952 252.798 314.568C253.459 314.163 254.195 313.96 255.006 313.96H268.99C269.8 313.96 270.536 314.163 271.198 314.568C271.88 314.952 272.414 315.475 272.798 316.136C273.203 316.797 273.406 317.544 273.406 318.376V323.56C273.406 324.349 273.203 325.085 272.798 325.768C272.414 326.429 271.88 326.963 271.198 327.368C270.536 327.773 269.8 327.976 268.99 327.976H255.166C255.059 327.976 254.963 328.019 254.878 328.104C254.814 328.168 254.782 328.253 254.782 328.36V332.424C254.782 332.531 254.814 332.627 254.878 332.712C254.963 332.776 255.059 332.808 255.166 332.808H273.406V337H250.59ZM281.568 337C280.757 337 280.021 336.787 279.36 336.36C278.699 335.912 278.165 335.336 277.76 334.632C277.355 333.928 277.152 333.181 277.152 332.392V318.472C277.152 317.64 277.355 316.893 277.76 316.232C278.165 315.549 278.699 315.005 279.36 314.6C280.021 314.173 280.757 313.96 281.568 313.96H295.552C296.363 313.96 297.099 314.173 297.76 314.6C298.421 315.005 298.955 315.549 299.36 316.232C299.765 316.893 299.968 317.64 299.968 318.472V332.392C299.968 333.181 299.765 333.928 299.36 334.632C298.955 335.336 298.421 335.912 297.76 336.36C297.099 336.787 296.363 337 295.552 337H281.568ZM283.264 332.584H295.392C295.499 332.584 295.584 332.552 295.648 332.488C295.733 332.403 295.776 332.307 295.776 332.2V322.152L283.264 332.584ZM281.344 328.68L293.856 318.248H281.728C281.621 318.248 281.525 318.291 281.44 318.376C281.376 318.44 281.344 318.525 281.344 318.632V328.68ZM303.84 337V328.168C303.84 327.336 304.042 326.589 304.448 325.928C304.853 325.267 305.386 324.744 306.048 324.36C306.709 323.955 307.445 323.752 308.256 323.752H322.08C322.186 323.752 322.272 323.72 322.336 323.656C322.421 323.571 322.464 323.475 322.464 323.368V318.536C322.464 318.429 322.421 318.344 322.336 318.28C322.272 318.195 322.186 318.152 322.08 318.152H308.416C308.309 318.152 308.213 318.195 308.128 318.28C308.064 318.344 308.032 318.429 308.032 318.536V320.104H303.84V318.376C303.84 317.544 304.042 316.797 304.448 316.136C304.853 315.475 305.386 314.952 306.048 314.568C306.709 314.163 307.445 313.96 308.256 313.96H322.24C323.05 313.96 323.786 314.163 324.448 314.568C325.13 314.952 325.664 315.475 326.048 316.136C326.453 316.797 326.656 317.544 326.656 318.376V323.56C326.656 324.349 326.453 325.085 326.048 325.768C325.664 326.429 325.13 326.963 324.448 327.368C323.786 327.773 323.05 327.976 322.24 327.976H308.416C308.309 327.976 308.213 328.019 308.128 328.104C308.064 328.168 308.032 328.253 308.032 328.36V332.424C308.032 332.531 308.064 332.627 308.128 332.712C308.213 332.776 308.309 332.808 308.416 332.808H326.656V337H303.84ZM343.266 337V331.208H328.77V327.272L343.522 313.96H347.458V326.984H350.69V331.208H347.458V337H343.266ZM335.298 326.984H343.266V320.328L335.298 326.984Z" fill="black"/>
<path d="M1294.06 304.944H1316.04V307.152H1294.06V304.944ZM1290.6 311.152H1319.37V313.392H1290.6V311.152ZM1291.66 321.488C1297.42 321.296 1306.86 320.816 1315.56 320.304L1315.5 322.544C1307.02 323.12 1297.9 323.664 1291.91 323.984L1291.66 321.488ZM1308.49 315.696L1310.54 314.544C1313.67 317.168 1317.22 320.912 1318.76 323.6L1316.55 324.912C1315.11 322.288 1311.66 318.416 1308.49 315.696ZM1299.69 312.272L1302.41 313.072C1300.97 316.24 1299.11 320.112 1297.61 322.544L1295.5 321.776C1296.94 319.28 1298.73 315.152 1299.69 312.272ZM1290.89 298.224H1319.05V300.464H1290.89V298.224ZM1298.15 295.12H1300.52V303.44H1298.15V295.12ZM1309.26 295.12H1311.66V303.44H1309.26V295.12ZM1331.5 308.336L1333.54 308.592C1333.19 313.136 1332.52 317.52 1331.11 320.432C1330.76 320.112 1329.9 319.568 1329.38 319.28C1330.73 316.592 1331.24 312.496 1331.5 308.336ZM1330.7 302.192H1342.66V304.432H1330.7V302.192ZM1335.53 295.6H1337.77V324.08H1335.53V295.6ZM1339.34 308.72L1341.19 308.368C1342.02 311.44 1342.76 315.28 1342.95 317.904L1341 318.288C1340.81 315.696 1340.1 311.76 1339.34 308.72ZM1343.59 297.008H1351.24V299.184H1343.59V297.008ZM1342.82 305.84H1351.69V308.016H1342.82V305.84ZM1338.7 296.688L1340.3 295.92C1341.42 297.264 1342.57 299.088 1343.05 300.304L1341.35 301.168C1340.87 299.952 1339.75 298.064 1338.7 296.688ZM1346.54 306.512H1348.81V321.744C1348.81 323.056 1348.55 323.76 1347.66 324.144C1346.76 324.528 1345.29 324.56 1343.05 324.56C1342.95 323.92 1342.66 322.928 1342.34 322.224C1344.01 322.288 1345.48 322.288 1345.93 322.288C1346.41 322.256 1346.54 322.128 1346.54 321.712V306.512ZM1327.69 295.152L1329.9 295.952C1328.33 298.576 1325.7 301.488 1323.3 303.376C1322.98 302.864 1322.38 302.032 1321.96 301.584C1324.17 299.952 1326.5 297.328 1327.69 295.152ZM1325.77 307.888L1327.72 305.968L1328.01 306.064V324.592H1325.77V307.888ZM1328.62 301.584L1330.79 302.32C1328.9 306.288 1325.86 310.288 1322.92 312.88C1322.66 312.4 1321.96 311.28 1321.51 310.768C1324.26 308.528 1326.98 305.104 1328.62 301.584ZM1365.74 303.088C1367.56 303.28 1369.29 303.376 1371.18 303.376C1375.02 303.376 1378.95 303.088 1382.18 302.416V304.88C1378.79 305.456 1374.89 305.712 1371.14 305.712C1369.29 305.712 1367.62 305.648 1365.77 305.52L1365.74 303.088ZM1376.94 297.36C1376.84 298 1376.78 298.672 1376.74 299.28C1376.68 300.464 1376.65 302.736 1376.65 304.624C1376.65 309.552 1377.13 314.544 1377.13 317.84C1377.13 320.464 1375.91 323.024 1371.59 323.024C1367.3 323.024 1364.97 321.296 1364.97 318.416C1364.97 315.728 1367.34 313.616 1371.56 313.616C1376.94 313.616 1380.68 316.336 1383.37 318.768L1381.99 320.88C1378.63 317.744 1375.4 315.568 1371.34 315.568C1368.94 315.568 1367.27 316.624 1367.27 318.16C1367.27 319.824 1368.84 320.688 1371.18 320.688C1373.86 320.688 1374.63 319.344 1374.63 317.2C1374.63 314.896 1374.22 308.912 1374.22 304.688C1374.22 302.48 1374.18 300.464 1374.18 299.344C1374.18 298.768 1374.15 297.936 1374.06 297.36H1376.94ZM1361.16 297.584C1360.97 298.096 1360.71 299.152 1360.58 299.728C1359.94 302.704 1358.98 309.04 1358.98 312.624C1358.98 314.192 1359.08 315.536 1359.3 317.104C1359.82 315.632 1360.62 313.68 1361.16 312.368L1362.47 313.392C1361.67 315.632 1360.49 318.896 1360.17 320.464C1360.07 320.912 1360.01 321.552 1360.04 321.904C1360.07 322.224 1360.1 322.704 1360.14 323.024L1357.86 323.216C1357.26 320.912 1356.65 317.392 1356.65 313.072C1356.65 308.368 1357.74 302.256 1358.12 299.632C1358.25 298.864 1358.31 298.032 1358.34 297.328L1361.16 297.584ZM1402.25 304.752L1415.56 303.12L1415.85 305.296L1402.54 306.992L1402.25 304.752ZM1409.58 296.656L1411.4 295.632C1412.94 297.264 1414.57 299.472 1415.24 300.976L1413.32 302.128C1412.65 300.624 1411.08 298.288 1409.58 296.656ZM1386.31 296.528L1388.3 295.888C1389.35 297.488 1390.34 299.696 1390.66 301.136L1388.55 301.904C1388.3 300.464 1387.3 298.224 1386.31 296.528ZM1392.26 295.696L1394.34 295.216C1395.08 296.976 1395.72 299.248 1395.82 300.656L1393.61 301.232C1393.51 299.792 1392.97 297.456 1392.26 295.696ZM1389.42 309.2V312.144H1399.85V309.2H1389.42ZM1389.42 304.496V307.408H1399.85V304.496H1389.42ZM1387.37 302.608H1401.96V314H1387.37V302.608ZM1386.25 316.784H1402.95V318.928H1386.25V316.784ZM1400.65 295.312L1403.08 296.08C1402.02 298.192 1400.71 300.656 1399.69 302.192L1397.77 301.488C1398.76 299.824 1400.01 297.2 1400.65 295.312ZM1393.61 303.344H1395.69V313.008H1395.82V324.56H1393.48V313.008H1393.61V303.344ZM1412.84 307.088L1414.7 308.144C1412.42 314.96 1407.62 321.392 1401.83 324.464C1401.38 323.888 1400.68 323.184 1400.07 322.736C1405.96 320.016 1410.7 313.712 1412.84 307.088ZM1405.35 295.28H1407.62C1407.98 309.552 1409.96 321.52 1413.19 321.744C1413.86 321.776 1414.31 320.016 1414.57 316.88C1414.98 317.36 1415.94 317.968 1416.33 318.192C1415.69 323.184 1414.5 324.624 1413.19 324.56C1407.72 324.336 1405.93 311.696 1405.35 295.28ZM1431.56 304.688H1433.99V321.616C1433.99 323.152 1433.61 323.824 1432.49 324.208C1431.37 324.56 1429.61 324.624 1426.7 324.624C1426.57 323.952 1426.15 322.96 1425.77 322.288C1428.07 322.384 1430.15 322.384 1430.76 322.352C1431.37 322.288 1431.56 322.16 1431.56 321.616V304.688ZM1422.82 303.44H1444.23V318.96H1441.8V305.616H1422.82V303.44ZM1418.34 309.136H1447.75V311.344H1418.34V309.136ZM1421.51 315.088H1442.95V317.296H1421.51V315.088ZM1427.78 295.088L1430.41 295.568C1428.23 299.088 1425.1 302.768 1420.68 305.68C1420.26 305.136 1419.46 304.368 1418.89 304.016C1423.11 301.488 1426.15 297.968 1427.78 295.088ZM1427.62 297.776H1436.81V299.888H1426.02L1427.62 297.776ZM1436.36 297.776H1436.9L1437.32 297.68L1439.05 298.864C1437.7 300.976 1435.43 303.504 1433.58 305.04C1433.13 304.656 1432.36 304.144 1431.88 303.856C1433.54 302.416 1435.43 299.952 1436.36 298.288V297.776ZM1462.18 297.296C1461.99 298 1461.74 299.216 1461.61 299.824C1461.16 302.128 1460.49 305.776 1459.59 308.944C1458.44 313.488 1456.3 320.112 1454.6 323.6L1451.78 322.672C1453.74 319.376 1455.98 312.848 1457.16 308.336C1457.96 305.392 1458.79 301.392 1459.02 299.696C1459.14 298.8 1459.21 297.712 1459.14 297.04L1462.18 297.296ZM1455.11 302.64C1458.63 302.64 1463.34 302.096 1467.3 301.072V303.6C1463.34 304.496 1458.5 305.008 1455.05 305.008C1453.64 305.008 1452.52 304.976 1451.34 304.88L1451.27 302.416C1452.78 302.608 1453.93 302.64 1455.11 302.64ZM1465.22 307.056C1466.89 306.896 1469 306.768 1471.08 306.768C1472.94 306.768 1474.89 306.832 1476.62 307.024L1476.55 309.456C1474.89 309.264 1473.03 309.104 1471.14 309.104C1469.13 309.104 1467.18 309.2 1465.22 309.424V307.056ZM1465.86 314.832C1465.61 315.856 1465.42 316.88 1465.42 317.712C1465.42 319.216 1466.28 320.688 1470.82 320.688C1472.9 320.688 1475.11 320.432 1477.1 320.048L1477 322.64C1475.27 322.864 1473.13 323.088 1470.79 323.088C1465.77 323.088 1463.02 321.52 1463.02 318.352C1463.02 317.136 1463.21 315.952 1463.5 314.576L1465.86 314.832ZM1473.13 298.288C1473.96 299.408 1475.11 301.392 1475.78 302.672L1474.06 303.44C1473.42 302.16 1472.3 300.208 1471.43 298.992L1473.13 298.288ZM1476.68 296.976C1477.54 298.16 1478.76 300.144 1479.37 301.36L1477.64 302.128C1476.97 300.72 1475.88 298.928 1474.98 297.712L1476.68 296.976Z" fill="black"/>
</svg>
