<svg width="35" height="28" viewBox="0 0 35 28" fill="none" xmlns="http://www.w3.org/2000/svg">
<path fill-rule="evenodd" clip-rule="evenodd" d="M11.0075 27.3524C24.2148 27.3524 31.4388 17.0977 31.4388 8.2059C31.4388 7.91398 31.4387 7.62427 31.4177 7.33564C32.823 6.38446 34.0358 5.20348 35 3.85217C33.691 4.39663 32.2997 4.75369 30.877 4.91112C32.375 4.06983 33.4967 2.74811 34.034 1.18853C32.6235 1.97242 31.0817 2.52566 29.4735 2.8225C26.754 0.113307 22.2057 -0.0179545 19.313 2.53052C17.4493 4.17373 16.6565 6.62375 17.2358 8.96066C11.4625 8.68844 6.083 6.13345 2.436 1.93028C0.53025 5.00516 1.505 8.93734 4.66025 10.9118C3.5175 10.8807 2.39925 10.5923 1.4 10.0708V10.1562C1.40175 13.3591 3.8115 16.1169 7.161 16.7515C6.104 17.0221 4.9945 17.0613 3.92 16.8662C4.85975 19.6082 7.5565 21.4862 10.6278 21.5404C8.085 23.4132 4.94375 24.4301 1.70975 24.4268C1.13925 24.4252 0.56875 24.394 0 24.3301C3.28475 26.3045 7.105 27.3524 11.0075 27.3475" fill="black"/>
</svg>
